# xmcd
#
# Track frame offsets: 
#        150
#        13504
#        25009
#        40862
#        51941
#        65408
#        78024
#        90162
#        102573
#        116298
#        131161
#        138922
#        143659
#        149820
#        164221
#        176006
#        192469
#        204387
#        217637
#        231137
#        243651
#        257400
#        272740
#        286779
#        296806
#
# Disc length: 3981 seconds
#
# Revision: 0
# Processed by: cddbd v1.5.2PL0 Copyright (c) Steve Scherf et al.
# Submitted via: ExactAudioCopy v0.95b3
#
DISCID=6d0f8b19
DTITLE=The Beatles  - Live 09 - Bowled Over - Disc 1
DYEAR=1900
DGENRE=
TTITLE0=Shes A Woman (Visit To Minneapolis)
TTITLE1=I Feel Fine (Visit To Minneapolis)
TTITLE2=Dizzy Miss Lizzy (Visit To Minneapolis)
TTITLE3=Ticket To Ride (Visit To Minneapolis)
TTITLE4=Everybodys Trying To Be My Baby (Visit To Minneapolis)
TTITLE5=Cant Buy Me Love (Visit To Minneapolis)
TTITLE6=Babys In Black (Visit To Minneapolis)
TTITLE7=I Wanna Be Your Man (Visit To Minneapolis)
TTITLE8=A Hard Days Night (Visit To Minneapolis)
TTITLE9=Help! (Visit To Minneapolis)
TTITLE10=Im Down (Visit To Minneapolis)
TTITLE11=intro (The Complete Hollywood Bowl Concerts)
TTITLE12=Twist And Shout (Complete Hollywood Bowl)
TTITLE13=She' A Woman (The Complete Hollywood Bowl Concerts)
TTITLE14=I Feel Fine (Complete Hollywood Bowl)
TTITLE15=Dizzy Miss Lizzy (Complete Hollywood Bowl)
TTITLE16=Ticket To Ride (Complete Hollywood Bowl)
TTITLE17=Everybodys Trying To Be My Baby (Complete Hollywood Bowl)
TTITLE18=Cant Buy Me Love (Complete Hollywood Bowl)
TTITLE19=Babys In Black (Complete Hollywood Bowl)
TTITLE20=I Wanna Be Your Man (Complete Hollywood Bowl)
TTITLE21=A Hard Days Night (Complete Hollywood Bowl)
TTITLE22=Help! (Complete Hollywood Bowl)
TTITLE23=Im Down (Complete Hollywood Bowl)
TTITLE24=outro (The Complete Hollywood Bowl Concerts)
EXTD=
EXTT0=
EXTT1=
EXTT2=
EXTT3=
EXTT4=
EXTT5=
EXTT6=
EXTT7=
EXTT8=
EXTT9=
EXTT10=
EXTT11=
EXTT12=
EXTT13=
EXTT14=
EXTT15=
EXTT16=
EXTT17=
EXTT18=
EXTT19=
EXTT20=
EXTT21=
EXTT22=
EXTT23=
EXTT24=
PLAYORDER=
